<?xml version="1.0" encoding="UTF-8"?>
<svg xmlns="http://www.w3.org/2000/svg" xmlns:xlink="http://www.w3.org/1999/xlink" viewBox="0 0 150 150" width="150px" height="150px">
<g id="surface126667033">
<path style=" stroke:none;fill-rule:nonzero;fill:rgb(70.588237%,43.137255%,35.294119%);fill-opacity:1;" d="M 96 33 L 111 33 C 112.65625 33 114 31.65625 114 30 L 114 9.789062 C 114 8.21875 112.789062 6.910156 111.226562 6.796875 C 106.453125 6.460938 97.128906 6 90.421875 6 C 72 6 60 17.039062 60 37.105469 L 60 57 L 39 57 C 37.34375 57 36 58.34375 36 60 L 36 81 C 36 82.65625 37.34375 84 39 84 L 60 84 L 60 141 C 60 142.65625 61.34375 144 63 144 L 84 144 C 85.65625 144 87 142.65625 87 141 L 87 84 L 108.664062 84 C 110.195312 84 111.480469 82.851562 111.648438 81.328125 L 113.980469 60.328125 C 114.179688 58.554688 112.789062 57 111 57 L 87 57 L 87 42 C 87 37.027344 91.027344 33 96 33 Z M 96 33 "/>
</g>
</svg>
