<?xml version="1.0" encoding="UTF-8"?>
<svg xmlns="http://www.w3.org/2000/svg" xmlns:xlink="http://www.w3.org/1999/xlink" viewBox="0 0 150 150" width="150px" height="150px">
<g id="surface126366100">
<path style=" stroke:none;fill-rule:nonzero;fill:rgb(70.588237%,43.137255%,35.294119%);fill-opacity:1;" d="M 48 9 C 26.488281 9 9 26.488281 9 48 L 9 102 C 9 123.511719 26.488281 141 48 141 L 102 141 C 123.511719 141 141 123.511719 141 102 L 141 48 C 141 26.488281 123.511719 9 102 9 Z M 111 33 C 114.300781 33 117 35.699219 117 39 C 117 42.300781 114.300781 45 111 45 C 107.699219 45 105 42.300781 105 39 C 105 35.699219 107.699219 33 111 33 Z M 75 42 C 93.210938 42 108 56.789062 108 75 C 108 93.210938 93.210938 108 75 108 C 56.789062 108 42 93.210938 42 75 C 42 56.789062 56.789062 42 75 42 Z M 75 48 C 60.121094 48 48 60.121094 48 75 C 48 89.878906 60.121094 102 75 102 C 89.878906 102 102 89.878906 102 75 C 102 60.121094 89.878906 48 75 48 Z M 75 48 "/>
</g>
</svg>
