<?xml version="1.0" encoding="UTF-8"?>
<svg xmlns="http://www.w3.org/2000/svg" xmlns:xlink="http://www.w3.org/1999/xlink" viewBox="0 0 150 150" width="150px" height="150px">
<g id="surface126559693">
<path style=" stroke:none;fill-rule:nonzero;fill:rgb(70.588237%,43.137255%,35.294119%);fill-opacity:1;" d="M 78.5 139.128906 C 71.894531 142.757812 72.175781 137.414062 72.460938 135.765625 C 72.628906 134.785156 73.398438 130.179688 73.398438 130.179688 C 73.617188 128.511719 73.847656 125.929688 73.1875 124.285156 C 72.453125 122.472656 69.542969 121.527344 67.40625 121.070312 C 35.875 116.921875 12.535156 95 12.535156 68.828125 C 12.535156 39.632812 41.972656 15.882812 78.144531 15.882812 C 114.316406 15.882812 143.75 39.632812 143.75 68.828125 C 143.75 101.617188 108.976562 122.371094 78.5 139.128906 Z M 57.402344 80.765625 C 57.402344 79.015625 55.96875 77.59375 54.207031 77.59375 L 45.28125 77.59375 L 45.28125 56.726562 C 45.28125 54.976562 43.847656 53.554688 42.085938 53.554688 C 40.320312 53.554688 38.886719 54.976562 38.886719 56.726562 L 38.886719 80.769531 C 38.886719 82.523438 40.320312 83.945312 42.085938 83.945312 L 54.207031 83.945312 C 55.96875 83.945312 57.402344 82.519531 57.402344 80.765625 Z M 66.742188 56.726562 C 66.742188 54.976562 65.304688 53.554688 63.542969 53.554688 C 61.777344 53.554688 60.347656 54.976562 60.347656 56.726562 L 60.347656 80.769531 C 60.347656 82.523438 61.78125 83.945312 63.542969 83.945312 C 65.308594 83.945312 66.742188 82.519531 66.742188 80.769531 Z M 95.929688 56.726562 C 95.929688 54.976562 94.492188 53.554688 92.730469 53.554688 C 90.964844 53.554688 89.527344 54.976562 89.527344 56.726562 L 89.527344 71.601562 L 77.097656 54.824219 C 76.496094 54.03125 75.539062 53.554688 74.539062 53.554688 C 74.195312 53.554688 73.855469 53.605469 73.523438 53.71875 C 72.214844 54.152344 71.335938 55.363281 71.335938 56.726562 L 71.335938 80.773438 C 71.335938 82.523438 72.773438 83.945312 74.539062 83.945312 C 76.308594 83.945312 77.742188 82.523438 77.742188 80.773438 L 77.742188 65.898438 L 90.167969 82.679688 C 90.769531 83.472656 91.726562 83.945312 92.726562 83.945312 C 93.066406 83.945312 93.410156 83.890625 93.742188 83.78125 C 95.054688 83.351562 95.929688 82.144531 95.929688 80.773438 Z M 115.546875 65.574219 L 106.621094 65.574219 L 106.621094 59.898438 L 115.546875 59.898438 C 117.316406 59.898438 118.75 58.476562 118.75 56.726562 C 118.75 54.976562 117.3125 53.554688 115.546875 53.554688 L 103.425781 53.554688 C 101.660156 53.554688 100.226562 54.976562 100.226562 56.726562 C 100.226562 56.726562 100.226562 56.726562 100.226562 56.734375 L 100.226562 68.742188 C 100.226562 68.742188 100.226562 68.742188 100.226562 68.746094 L 100.226562 80.761719 C 100.226562 82.515625 101.664062 83.9375 103.425781 83.9375 L 115.546875 83.9375 C 117.3125 83.9375 118.75 82.511719 118.75 80.761719 C 118.75 79.011719 117.3125 77.589844 115.546875 77.589844 L 106.621094 77.589844 L 106.621094 71.914062 L 115.546875 71.914062 C 117.316406 71.914062 118.75 70.492188 118.75 68.742188 C 118.75 66.988281 117.3125 65.566406 115.546875 65.566406 Z M 115.546875 65.574219 "/>
</g>
</svg>
